<?xml version="1.0" standalone="no"?>
<!DOCTYPE svg PUBLIC "-//W3C//DTD SVG 20010904//EN"
 "http://www.w3.org/TR/2001/REC-SVG-20010904/DTD/svg10.dtd">
<svg version="1.0" xmlns="http://www.w3.org/2000/svg"
 width="47.000000pt" height="31.000000pt" viewBox="0 0 47.000000 31.000000"
 preserveAspectRatio="xMidYMid meet">

<g transform="translate(0.000000,31.000000) scale(0.100000,-0.100000)"
fill="#000000" stroke="none">
<path d="M16 302 c-6 -11 201 -187 219 -186 18 2 224 177 218 187 -6 10 -431
9 -437 -1z"/>
<path d="M395 208 c-38 -34 -70 -65 -70 -69 0 -4 33 -33 73 -64 l72 -56 0 125
c0 69 -1 126 -2 126 -2 -1 -34 -28 -73 -62z"/>
<path d="M0 139 l0 -120 75 58 c41 31 75 60 74 63 -1 7 -135 120 -143 120 -3
0 -6 -54 -6 -121z"/>
<path d="M259 95 l-25 -26 -26 21 c-14 11 -29 20 -33 20 -4 0 -37 -24 -73 -52
l-66 -53 96 -3 c53 -1 143 -1 199 0 l102 3 -71 58 c-39 31 -72 57 -74 57 -2 0
-15 -11 -29 -25z"/>
</g>
</svg>
