<?xml version="1.0" standalone="no"?>
<!DOCTYPE svg PUBLIC "-//W3C//DTD SVG 20010904//EN"
 "http://www.w3.org/TR/2001/REC-SVG-20010904/DTD/svg10.dtd">
<svg version="1.0" xmlns="http://www.w3.org/2000/svg"
 width="122.000000pt" height="122.000000pt" viewBox="0 0 122.000000 122.000000"
 preserveAspectRatio="xMidYMid meet">

<g transform="translate(0.000000,122.000000) scale(0.100000,-0.100000)"
fill="#000000" stroke="none">
<path d="M920 1033 l-55 -58 58 55 c31 30 57 56 57 57 0 8 -10 -1 -60 -54z"/>
<path d="M465 1049 c-297 -102 -415 -446 -242 -701 161 -236 484 -276 693 -85
29 26 67 69 84 94 36 56 70 160 69 212 -1 27 -4 22 -10 -24 -12 -83 -69 -194
-134 -260 -63 -65 -154 -111 -250 -128 -185 -32 -385 73 -470 247 -88 179 -62
361 72 507 80 85 160 128 278 148 50 9 50 9 10 9 -22 1 -67 -8 -100 -19z"/>
<path d="M655 1061 c76 -13 127 -29 163 -51 27 -17 32 -25 32 -59 0 -22 -4
-42 -9 -45 -5 -3 -40 9 -77 26 -61 29 -79 33 -154 33 -74 0 -93 -4 -150 -31
-114 -54 -194 -159 -205 -269 -5 -50 -5 -50 13 15 42 156 134 243 285 271 56
10 76 10 134 -5 37 -9 85 -28 106 -42 l39 -26 -22 -23 -22 -24 -41 27 c-37 24
-50 27 -131 27 -81 0 -96 -3 -137 -27 -95 -56 -151 -149 -152 -252 0 -108 60
-204 161 -253 142 -70 310 -7 382 142 19 38 21 58 18 123 -3 42 -10 90 -17
106 -17 42 -22 27 -6 -19 63 -179 -69 -370 -255 -369 -79 1 -124 19 -183 73
-65 60 -91 126 -85 219 5 65 9 79 44 129 52 75 121 114 213 121 54 3 76 0 119
-18 29 -12 52 -24 52 -26 0 -2 -16 -19 -37 -38 -23 -23 -40 -33 -47 -27 -58
46 -190 1 -231 -80 -20 -38 -19 -123 2 -166 45 -96 185 -120 273 -47 28 24 69
109 57 120 -3 3 -11 -12 -17 -34 -28 -106 -151 -151 -248 -92 -48 30 -72 75
-72 140 0 100 60 160 158 160 29 0 63 -5 74 -11 19 -10 19 -12 -18 -50 -21
-21 -48 -39 -59 -39 -27 0 -65 -39 -65 -66 0 -26 40 -64 66 -64 26 0 64 40 64
66 0 11 23 42 51 69 29 28 49 42 46 33 -3 -9 0 -36 8 -60 7 -24 13 -35 14 -26
1 9 -4 29 -10 45 -9 26 -7 31 30 65 22 21 36 38 31 38 -5 0 -12 -4 -15 -10 -3
-5 -11 -10 -18 -10 -6 0 8 20 32 44 l44 45 24 -44 c82 -155 58 -334 -61 -443
-76 -70 -123 -87 -241 -87 -88 1 -106 4 -150 27 -99 51 -164 138 -192 257
l-13 56 5 -50 c11 -110 95 -224 203 -276 71 -34 198 -38 275 -9 104 39 190
125 217 218 31 104 18 235 -31 303 -10 15 -19 32 -19 37 0 13 25 22 64 22 31
0 35 -4 59 -58 14 -31 30 -87 35 -122 8 -55 10 -59 11 -24 1 51 -32 164 -58
196 l-20 23 51 52 c28 28 47 56 44 62 -4 5 -22 13 -41 17 -27 5 -36 12 -41 33
-10 44 -12 47 -13 16 -1 -41 8 -52 52 -60 20 -4 37 -9 37 -11 0 -1 -21 -23
-47 -48 -38 -36 -55 -46 -83 -46 -32 0 -48 -13 -163 -128 -81 -81 -127 -135
-127 -148 0 -31 -34 -58 -65 -50 -57 14 -54 91 4 102 19 4 71 49 157 136 71
72 123 128 117 124 -10 -5 -13 4 -13 33 0 28 -6 46 -21 60 -30 28 -102 51
-174 56 l-60 4 50 -8z m205 -155 c0 -2 -8 -10 -17 -17 -16 -13 -17 -12 -4 4
13 16 21 21 21 13z m-60 -160 c0 -2 -8 -10 -17 -17 -16 -13 -17 -12 -4 4 13
16 21 21 21 13z"/>
</g>
</svg>
