<?xml version="1.0" standalone="no"?>
<!DOCTYPE svg PUBLIC "-//W3C//DTD SVG 20010904//EN"
 "http://www.w3.org/TR/2001/REC-SVG-20010904/DTD/svg10.dtd">
<svg version="1.0" xmlns="http://www.w3.org/2000/svg"
 width="143.000000pt" height="89.000000pt" viewBox="0 0 143.000000 89.000000"
 preserveAspectRatio="xMidYMid meet">

<g transform="translate(0.000000,89.000000) scale(0.100000,-0.100000)"
fill="#000000" stroke="none">
<path d="M823 880 c-52 -22 -67 -114 -29 -172 27 -41 18 -62 -29 -68 -36 -5
-41 -9 -55 -47 -12 -33 -19 -40 -30 -33 -8 5 -29 10 -46 10 -20 0 -34 6 -38
16 -8 20 24 63 47 64 26 0 31 25 19 94 -14 77 -43 106 -107 106 -92 0 -125
-38 -125 -145 0 -47 3 -55 19 -55 20 0 51 -39 51 -65 0 -9 -9 -15 -24 -15 -46
0 -75 -18 -85 -52 -5 -18 -10 -27 -10 -20 -1 7 -16 12 -41 12 -57 0 -68 25
-37 84 20 37 23 53 17 96 -9 72 -35 95 -105 95 -45 0 -59 -4 -79 -25 -36 -36
-38 -112 -6 -173 29 -54 19 -74 -38 -79 -31 -3 -40 -9 -54 -38 -16 -32 -44
-207 -35 -216 2 -2 94 46 205 106 l201 111 140 -82 c77 -44 145 -79 150 -77 5
1 81 68 170 146 140 125 159 146 150 163 -6 13 -21 19 -44 19 -44 0 -54 28
-26 73 17 28 19 41 12 86 -5 29 -15 59 -23 68 -19 18 -85 26 -115 13z"/>
<path d="M1265 719 c-77 -21 -157 -43 -179 -49 l-38 -12 33 -34 c33 -34 33
-34 14 -53 -11 -10 -103 -92 -205 -183 l-186 -165 -144 83 c-80 46 -150 83
-155 82 -24 -6 -375 -202 -375 -209 0 -15 82 -159 88 -155 4 2 70 38 148 80
l141 76 155 -90 c85 -49 160 -90 166 -90 6 0 40 26 74 58 35 32 150 136 257
232 l194 174 34 -37 c21 -24 35 -33 38 -25 2 7 25 84 50 171 26 87 49 165 52
173 7 19 0 18 -162 -27z"/>
</g>
</svg>
