<?xml version="1.0" standalone="no"?>
<!DOCTYPE svg PUBLIC "-//W3C//DTD SVG 20010904//EN"
 "http://www.w3.org/TR/2001/REC-SVG-20010904/DTD/svg10.dtd">
<svg version="1.0" xmlns="http://www.w3.org/2000/svg"
 width="125.000000pt" height="115.000000pt" viewBox="0 0 125.000000 115.000000"
 preserveAspectRatio="xMidYMid meet">

<g transform="translate(0.000000,115.000000) scale(0.100000,-0.100000)"
fill="#000000" stroke="none">
<path d="M17 1132 c-22 -24 -21 -34 3 -82 35 -69 37 -121 5 -184 l-28 -55 22
-46 c36 -77 38 -125 6 -183 l-27 -50 26 -65 c33 -82 33 -110 -1 -176 -19 -39
-23 -58 -17 -70 6 -9 79 -62 164 -119 l154 -102 177 0 178 0 20 26 c19 24 21
40 21 170 0 120 -2 144 -15 144 -26 0 -35 37 -35 144 0 123 7 136 75 136 38 0
44 3 47 23 2 14 10 22 23 22 11 0 24 -10 30 -22 8 -19 18 -23 50 -23 23 0 46
-5 53 -12 8 -8 12 -52 12 -130 0 -114 -1 -118 -25 -134 -25 -16 -25 -18 -25
-154 0 -124 -2 -140 -21 -164 l-20 -26 156 0 c151 0 157 1 180 24 44 44 60
172 30 258 -12 38 -12 49 0 83 18 52 19 140 0 200 -13 43 -12 54 2 97 21 65
14 170 -16 232 -13 25 -26 46 -31 46 -9 0 -275 149 -333 186 -36 24 -43 24
-180 22 l-142 -3 168 -104 c93 -57 178 -113 188 -124 16 -18 19 -37 19 -134 0
-121 -3 -128 -47 -93 -33 25 -68 25 -93 0 -42 -42 -50 -29 -50 89 0 60 -3 116
-6 125 -3 9 -90 68 -193 131 l-188 115 -150 0 c-133 0 -152 -2 -166 -18z m220
-214 c40 -26 77 -57 83 -68 14 -27 23 -132 12 -148 -7 -10 -33 3 -108 54 -54
37 -100 68 -102 70 -2 1 4 27 13 58 9 31 13 65 10 77 -8 25 -11 26 92 -43z
m258 -141 c9 -47 -7 -101 -31 -105 -17 -2 -19 4 -19 68 0 66 1 70 22 70 17 0
24 -8 28 -33z m-260 -146 c77 -54 81 -59 94 -113 10 -39 12 -65 5 -86 l-9 -30
-89 58 c-122 80 -117 74 -100 140 8 30 11 62 8 72 -8 27 4 22 91 -41z m256
-128 c16 -42 0 -117 -26 -121 -18 -3 -20 3 -20 73 -1 66 1 75 17 75 11 0 23
-12 29 -27z m-258 -158 c83 -54 97 -74 103 -150 8 -87 -1 -88 -116 -11 -76 50
-100 71 -95 83 14 38 24 103 18 119 -8 22 0 18 90 -41z m258 -132 c5 -14 7
-46 3 -70 -5 -35 -10 -43 -28 -43 -19 0 -21 5 -21 70 0 60 2 70 18 70 10 0 22
-12 28 -27z"/>
<path d="M720 475 l0 -95 35 0 35 0 0 76 0 75 28 -3 c26 -3 27 -5 30 -75 l3
-73 29 0 30 0 0 95 0 95 -95 0 -95 0 0 -95z"/>
</g>
</svg>
