<?xml version="1.0" standalone="no"?>
<!DOCTYPE svg PUBLIC "-//W3C//DTD SVG 20010904//EN"
 "http://www.w3.org/TR/2001/REC-SVG-20010904/DTD/svg10.dtd">
<svg version="1.0" xmlns="http://www.w3.org/2000/svg"
 width="126.000000pt" height="106.000000pt" viewBox="0 0 126.000000 106.000000"
 preserveAspectRatio="xMidYMid meet">

<g transform="translate(0.000000,106.000000) scale(0.100000,-0.100000)"
fill="#000000" stroke="none">
<path d="M39 1031 l-29 -29 0 -421 0 -420 24 -28 24 -28 237 -5 237 -5 24 -28
24 -28 0 481 0 482 -29 29 -29 29 -227 0 -227 0 -29 -29z m336 -114 c50 -49
70 -108 60 -171 -6 -33 -18 -51 -61 -91 l-54 -50 11 -187 c13 -202 10 -218
-36 -218 -44 0 -48 17 -40 197 3 93 9 176 12 186 3 12 -11 32 -46 65 -78 73
-90 130 -45 219 29 59 73 93 123 93 26 0 43 -9 76 -43z"/>
<path d="M709 1031 l-29 -29 0 -480 0 -480 29 29 29 29 227 0 227 0 29 29 29
29 0 422 0 422 -29 29 -29 29 -227 0 -227 0 -29 -29z m435 -233 c20 -29 20
-34 -4 -58 -18 -18 -33 -20 -164 -20 -80 0 -156 4 -169 9 -32 13 -41 39 -22
67 15 24 18 24 180 24 158 0 164 -1 179 -22z m-102 -185 c22 -20 23 -41 1 -65
-14 -15 -32 -18 -125 -18 -95 0 -110 2 -128 20 -11 11 -20 25 -20 30 0 6 9 19
20 30 18 18 33 20 127 20 85 0 110 -3 125 -17z m98 -193 c24 -24 24 -29 4 -58
-15 -21 -21 -22 -179 -22 -162 0 -165 0 -180 24 -18 27 -11 54 19 66 12 5 87
9 169 9 134 1 149 -1 167 -19z"/>
</g>
</svg>
