<?xml version="1.0" standalone="no"?>
<!DOCTYPE svg PUBLIC "-//W3C//DTD SVG 20010904//EN"
 "http://www.w3.org/TR/2001/REC-SVG-20010904/DTD/svg10.dtd">
<svg version="1.0" xmlns="http://www.w3.org/2000/svg"
 width="129.000000pt" height="111.000000pt" viewBox="0 0 129.000000 111.000000"
 preserveAspectRatio="xMidYMid meet">

<g transform="translate(0.000000,111.000000) scale(0.100000,-0.100000)"
fill="#000000" stroke="none">
<path d="M432 1090 c-49 -30 -72 -75 -72 -142 l0 -58 -151 0 -151 0 -29 -29
c-29 -29 -29 -31 -29 -146 0 -123 11 -169 53 -213 36 -39 67 -50 152 -53 l80
-4 3 37 c3 39 30 68 63 68 23 0 59 -47 59 -76 l0 -24 235 0 235 0 0 25 c0 27
40 75 62 75 30 0 57 -31 60 -68 l3 -37 80 4 c85 3 117 15 151 53 46 50 54 81
54 208 0 121 0 122 -29 151 l-29 29 -151 0 -151 0 0 55 c0 62 -14 97 -55 135
-26 25 -29 25 -218 28 -178 2 -194 1 -225 -18z m398 -89 c5 -11 10 -40 10 -65
l0 -46 -195 0 -195 0 0 49 c0 79 4 81 200 81 157 0 170 -1 180 -19z"/>
<path d="M327 513 c-4 -3 -7 -46 -7 -94 0 -71 3 -88 16 -93 32 -12 44 13 44
93 0 75 -9 101 -35 101 -7 0 -15 -3 -18 -7z"/>
<path d="M920 505 c-9 -11 -11 -36 -6 -92 6 -76 16 -96 43 -86 21 8 14 187 -8
191 -9 1 -22 -4 -29 -13z"/>
<path d="M50 236 c0 -173 2 -207 16 -220 14 -14 80 -16 579 -16 499 0 565 2
579 16 14 13 16 47 16 219 l0 204 -42 -19 c-31 -14 -66 -20 -120 -20 l-78 0 0
-38 c0 -46 -14 -62 -56 -62 -38 0 -51 14 -56 60 l-3 35 -237 3 -238 2 0 -28
c0 -41 -26 -72 -60 -72 -38 0 -60 24 -60 64 l0 34 -87 4 c-56 3 -100 11 -120
21 l-33 18 0 -205z"/>
</g>
</svg>
